<?xml version="1.0" encoding="UTF-8" standalone="no"?>
<!-- Created with Inkscape (http://www.inkscape.org/) -->

<svg
   xmlns:dc="http://purl.org/dc/elements/1.1/"
   xmlns:cc="http://creativecommons.org/ns#"
   xmlns:rdf="http://www.w3.org/1999/02/22-rdf-syntax-ns#"
   xmlns:svg="http://www.w3.org/2000/svg"
   xmlns="http://www.w3.org/2000/svg"
   xmlns:sodipodi="http://sodipodi.sourceforge.net/DTD/sodipodi-0.dtd"
   xmlns:inkscape="http://www.inkscape.org/namespaces/inkscape"
   width="80.022224mm"
   height="77.027122mm"
   viewBox="0 0 80.022224 77.027123"
   version="1.1"
   id="svg8"
   inkscape:version="0.92.5 (2060ec1f9f, 2020-04-08)"
   sodipodi:docname="80x80_profile.svg">
  <defs
     id="defs2">
    <clipPath
       id="clipPath831"
       clipPathUnits="userSpaceOnUse">
      <path
         inkscape:connector-curvature="0"
         id="path829"
         d="M 298.583,547.466 H 558.425 V 742.348 H 298.583 Z" />
    </clipPath>
    <clipPath
       id="clipPath913"
       clipPathUnits="userSpaceOnUse">
      <path
         inkscape:connector-curvature="0"
         id="path911"
         d="M 0,841.89 H 595.276 V 0 H 0 Z" />
    </clipPath>
    <clipPath
       id="clipPath1373"
       clipPathUnits="userSpaceOnUse">
      <path
         inkscape:connector-curvature="0"
         id="path1371"
         d="M 0,841.89 H 595.276 V 0 H 0 Z" />
    </clipPath>
    <clipPath
       id="clipPath1381"
       clipPathUnits="userSpaceOnUse">
      <path
         inkscape:connector-curvature="0"
         id="path1379"
         d="m 422.362,785.197 h 136.063 v 30.315 H 422.362 Z" />
    </clipPath>
  </defs>
  <sodipodi:namedview
     id="base"
     pagecolor="#ffffff"
     bordercolor="#666666"
     borderopacity="1.0"
     inkscape:pageopacity="0.0"
     inkscape:pageshadow="2"
     inkscape:zoom="2.4903417"
     inkscape:cx="247.34141"
     inkscape:cy="132.85767"
     inkscape:document-units="mm"
     inkscape:current-layer="layer1"
     showgrid="false"
     showguides="true"
     inkscape:guide-bbox="true"
     fit-margin-top="0"
     fit-margin-left="0"
     fit-margin-right="0"
     fit-margin-bottom="0"
     inkscape:window-width="2560"
     inkscape:window-height="1418"
     inkscape:window-x="1592"
     inkscape:window-y="-8"
     inkscape:window-maximized="1">
    <sodipodi:guide
       position="6.5000001,0"
       orientation="1,0"
       id="guide2135"
       inkscape:locked="false"
       inkscape:label=""
       inkscape:color="rgb(0,0,255)" />
    <sodipodi:guide
       position="73.500001,0"
       orientation="1,0"
       id="guide2139"
       inkscape:locked="false"
       inkscape:label=""
       inkscape:color="rgb(0,0,255)" />
    <sodipodi:guide
       position="0,7.3000001"
       orientation="0,1"
       id="guide2141"
       inkscape:locked="false"
       inkscape:label=""
       inkscape:color="rgb(0,0,255)" />
    <sodipodi:guide
       position="7.3000001,0"
       orientation="1,0"
       id="guide2143"
       inkscape:locked="false"
       inkscape:label=""
       inkscape:color="rgb(0,0,255)" />
    <sodipodi:guide
       position="9.1089916,8.2000001"
       orientation="0,1"
       id="guide2145"
       inkscape:locked="false"
       inkscape:label=""
       inkscape:color="rgb(0,0,255)" />
    <sodipodi:guide
       position="0,6.5000001"
       orientation="0,1"
       id="guide2153"
       inkscape:locked="false"
       inkscape:label=""
       inkscape:color="rgb(0,0,255)" />
  </sodipodi:namedview>
  <metadata
     id="metadata5">
    <rdf:RDF>
      <cc:Work
         rdf:about="">
        <dc:format>image/svg+xml</dc:format>
        <dc:type
           rdf:resource="http://purl.org/dc/dcmitype/StillImage" />
        <dc:title></dc:title>
      </cc:Work>
    </rdf:RDF>
  </metadata>
  <g
     inkscape:label="Layer 1"
     inkscape:groupmode="layer"
     id="layer1"
     transform="translate(-86.482374,-102.29961)">
    <g
       id="g865"
       transform="matrix(0.43698582,0,0,-0.43698582,90.881938,174.92773)">
      <path
         d="M 0,0 10.523,10.523"
         style="fill:none;stroke:#000000;stroke-width:0.073;stroke-linecap:round;stroke-linejoin:round;stroke-miterlimit:10;stroke-dasharray:6.164, 0.514, 0.514, 0.514;stroke-dashoffset:40.3030014;stroke-opacity:1"
         id="path867"
         inkscape:connector-curvature="0" />
    </g>
    <g
       id="g869"
       transform="matrix(0.43698582,0,0,-0.43698582,162.10504,174.92773)">
      <path
         d="M 0,0 -10.523,10.523"
         style="fill:none;stroke:#000000;stroke-width:0.073;stroke-linecap:round;stroke-linejoin:round;stroke-miterlimit:10;stroke-dasharray:6.164, 0.514, 0.514, 0.514;stroke-dashoffset:40.3030014;stroke-opacity:1"
         id="path871"
         inkscape:connector-curvature="0" />
    </g>
    <g
       id="g897"
       transform="matrix(0.43698582,0,0,-0.43698582,86.504476,153.67279)">
      <path
         d="m 0,0 v -49.507 m 0,0 0.177,-1.784 0.52,-1.717 0.845,-1.582 1.139,-1.388 1.385,-1.138 1.582,-0.843 1.717,-0.523 1.787,-0.174 m 0,0 h 35.78 m 0,0 h 0.031 l 0.034,0.005 0.033,0.006 0.034,0.009 0.031,0.008 0.031,0.014 0.031,0.017 0.028,0.016 m 0,0 0.444,0.296 m 0,0 0.028,0.017 0.034,0.014 0.03,0.005 0.034,0.003 0.034,-0.003 0.034,-0.005 0.031,-0.014 0.028,-0.017 m 0,0 0.444,-0.296 m 0,0 0.028,-0.016 0.031,-0.017 0.031,-0.014 0.033,-0.008 0.031,-0.009 0.034,-0.006 0.034,-0.005 h 0.031 m 0,0 h 44.106 m 0,0 h 0.033 l 0.034,0.005 0.034,0.006 0.034,0.009 0.031,0.008 0.03,0.014 0.029,0.017 0.03,0.016 m 0,0 0.444,0.296 m 0,0 0.029,0.017 0.03,0.014 0.034,0.005 0.034,0.003 0.033,-0.003 0.034,-0.005 0.031,-0.014 0.028,-0.017 m 0,0 0.444,-0.296 m 0,0 0.028,-0.016 0.031,-0.017 0.031,-0.014 0.031,-0.008 0.034,-0.009 0.034,-0.006 0.033,-0.005 h 0.034 m 0,0 h 44.103 m 0,0 h 0.037 l 0.031,0.005 0.033,0.006 0.034,0.009 0.031,0.008 0.031,0.014 0.031,0.017 0.028,0.016 m 0,0 0.444,0.296 m 0,0 0.028,0.017 0.031,0.014 0.033,0.005 0.034,0.003 0.034,-0.003 0.034,-0.005 0.031,-0.014 0.027,-0.017 m 0,0 0.444,-0.296 m 0,0 0.032,-0.016 0.027,-0.017 0.032,-0.014 0.031,-0.008 0.033,-0.009 0.034,-0.006 0.034,-0.005 h 0.033 m 0,0 h 35.78 m 0,0 1.785,0.174 1.717,0.523 1.581,0.843 1.386,1.138 1.138,1.388 0.846,1.582 0.52,1.717 0.177,1.784 m 0,0 V 0 m 0,0 v 0.034 l -0.006,0.034 -0.006,0.033 -0.008,0.031 -0.011,0.031 -0.012,0.034 -0.016,0.028 -0.017,0.028 m 0,0 -0.298,0.444 m 0,0 -0.017,0.031 -0.011,0.031 -0.006,0.031 -0.003,0.036 0.003,0.031 0.006,0.034 0.011,0.031 0.017,0.031 m 0,0 0.298,0.443 m 0,0 0.017,0.028 0.016,0.031 0.012,0.029 0.011,0.033 0.008,0.031 0.006,0.034 0.006,0.034 v 0.033 m 0,0 v 30.38 m 0,0 v 0.033 l -0.006,0.034 -0.006,0.034 -0.008,0.03 -0.011,0.034 -0.012,0.028 -0.016,0.031 -0.017,0.031 m 0,0 -0.298,0.444 m 0,0 -0.017,0.028 -0.011,0.031 -0.006,0.034 -0.003,0.034 0.003,0.033 0.006,0.031 0.011,0.031 0.017,0.031 m 0,0 0.298,0.444 m 0,0 0.017,0.028 0.016,0.031 0.012,0.031 0.011,0.031 0.008,0.034 0.006,0.03 0.006,0.034 v 0.034 m 0,0 v 30.379 m 0,0 v 0.034 l -0.006,0.033 -0.006,0.034 -0.008,0.031 -0.011,0.034 -0.012,0.031 -0.016,0.028 -0.017,0.031 m 0,0 -0.298,0.441 m 0,0 -0.017,0.031 -0.011,0.031 -0.006,0.033 -0.003,0.034 0.003,0.034 0.006,0.031 0.011,0.034 0.017,0.027 m 0,0 0.298,0.444 m 0,0 0.017,0.029 0.016,0.03 0.012,0.031 0.011,0.032 0.008,0.033 0.006,0.031 0.006,0.033 v 0.034 m 0,0 v 30.073 m 0,0 -0.065,0.669 -0.197,0.644 -0.317,0.593 -0.427,0.52 -0.52,0.426 -0.593,0.318 -0.644,0.197 -0.668,0.065 m 0,0 h -1.602 m 0,0 -0.222,0.022 -0.216,0.064 -0.197,0.107 -0.174,0.14 -0.143,0.175 -0.105,0.197 -0.064,0.216 -0.023,0.222 m 0,0 v 2.259 m 0,0 -0.005,0.065 -0.015,0.065 -0.022,0.061 -0.031,0.059 -0.039,0.051 -0.048,0.048 -0.053,0.039 -0.056,0.031 m 0,0 -0.987,0.601 -0.806,0.832 -0.571,1.003 -0.298,1.116 -0.011,1.158 0.278,1.12 0.551,1.018 0.79,0.846 m 0,0 0.056,0.056 0.045,0.065 0.036,0.073 0.02,0.076 0.006,0.078 -0.006,0.082 -0.02,0.078 -0.036,0.071 m 0,0 -3.251,5.637 m 0,0 -0.085,0.123 -0.098,0.112 -0.112,0.099 -0.124,0.084 -0.135,0.065 -0.14,0.047 -0.149,0.031 -0.149,0.009 m 0,0 h -0.484 m 0,0 -0.089,-0.009 -0.085,-0.025 -0.079,-0.042 -0.07,-0.056 -0.056,-0.07 -0.042,-0.079 -0.028,-0.087 -0.009,-0.09 m 0,0 v -0.694 m 0,0 0.006,-0.059 0.011,-0.06 0.02,-0.055 0.025,-0.054 0.034,-0.051 0.039,-0.044 0.045,-0.04 0.051,-0.034 m 0,0 0.57,-0.331 m 0,0 0.048,-0.037 0.036,-0.047 0.023,-0.054 0.008,-0.059 -0.008,-0.059 -0.023,-0.056 -0.036,-0.048 -0.048,-0.037 m 0,0 -0.57,-0.328 m 0,0 -0.051,-0.034 -0.045,-0.039 -0.039,-0.045 -0.034,-0.051 -0.025,-0.053 -0.02,-0.056 -0.011,-0.059 -0.006,-0.059 m 0,0 v -0.897 m 0,0 0.006,-0.059 0.011,-0.059 0.02,-0.056 0.025,-0.056 0.034,-0.048 0.039,-0.045 0.045,-0.039 0.051,-0.034 m 0,0 0.57,-0.332 m 0,0 0.048,-0.033 0.036,-0.048 0.023,-0.056 0.008,-0.059 -0.008,-0.059 -0.023,-0.056 -0.036,-0.048 -0.048,-0.034 m 0,0 -0.57,-0.331 m 0,0 -0.051,-0.034 -0.045,-0.04 -0.039,-0.044 -0.034,-0.051 -0.025,-0.054 -0.02,-0.055 -0.011,-0.059 -0.006,-0.059 m 0,0 v -0.897 m 0,0 0.006,-0.059 0.011,-0.059 0.02,-0.056 0.025,-0.054 0.034,-0.05 0.039,-0.045 0.045,-0.04 0.051,-0.033 m 0,0 0.57,-0.332 m 0,0 0.048,-0.036 0.036,-0.045 0.023,-0.057 0.008,-0.058 -0.008,-0.06 -0.023,-0.056 -0.036,-0.045 -0.048,-0.039 m 0,0 -0.57,-0.329 m 0,0 -0.051,-0.033 -0.045,-0.04 -0.039,-0.045 -0.034,-0.051 -0.025,-0.053 -0.02,-0.056 -0.011,-0.059 -0.006,-0.059 m 0,0 v -0.632 m 0,0 0.006,-0.059 0.011,-0.059 0.02,-0.057 0.025,-0.053 0.034,-0.05 0.039,-0.046 0.045,-0.039 0.051,-0.033 m 0,0 0.685,-0.397 m 0,0 0.051,-0.034 0.045,-0.039 0.039,-0.045 0.031,-0.05 0.028,-0.054 0.02,-0.056 0.011,-0.059 0.003,-0.059 m 0,0 v -1.562 m 0,0 -0.005,-0.073 -0.017,-0.07 -0.025,-0.065 -0.04,-0.062 -0.045,-0.054 -0.056,-0.047 -0.059,-0.037 -0.067,-0.028 m 0,0 -1.659,-0.542 m 0,0 -0.064,-0.028 -0.062,-0.037 -0.053,-0.047 -0.048,-0.054 -0.037,-0.062 -0.028,-0.065 -0.017,-0.07 -0.005,-0.073 m 0,0 v -0.666 m 0,0 0.008,-0.09 0.025,-0.084 0.043,-0.082 0.059,-0.067 0.067,-0.059 0.081,-0.042 0.085,-0.025 0.09,-0.009 m 0,0 h 1.371 m 0,0 0.09,-0.008 0.087,-0.026 0.079,-0.042 0.07,-0.059 0.056,-0.067 0.042,-0.079 0.026,-0.087 0.008,-0.09 m 0,0 v -2.287 m 0,0 0.09,-0.894 0.259,-0.857 0.424,-0.792 0.567,-0.692 0.695,-0.57 0.789,-0.421 0.86,-0.262 0.894,-0.087 m 0,0 h 0.913 m 0,0 0.135,-0.014 0.129,-0.039 0.118,-0.062 0.104,-0.087 0.084,-0.104 0.065,-0.118 0.039,-0.13 0.014,-0.131 m 0,0 V -44.069 m 0,0 -0.039,-0.265 -0.115,-0.241 -0.18,-0.2 -0.23,-0.137 -0.262,-0.068 -0.27,0.014 -0.253,0.09 -0.213,0.16 m 0,0 -0.461,0.461 m 0,0 -0.059,0.065 -0.05,0.07 -0.048,0.073 -0.037,0.079 -0.031,0.081 -0.022,0.085 -0.014,0.087 -0.006,0.087 m 0,0 -0.208,1.579 -0.545,1.498 -0.854,1.343 -1.127,1.127 -1.343,0.857 -1.495,0.548 -1.579,0.208 -1.588,-0.135 m 0,0 -0.09,-0.028 -0.082,-0.045 -0.07,-0.062 -0.059,-0.073 -0.039,-0.084 -0.025,-0.091 -0.003,-0.095 0.014,-0.09 m 0,0 0.624,-2.329 m 0,0 0.031,-0.079 0.042,-0.073 0.056,-0.062 0.065,-0.05 0.073,-0.04 0.081,-0.025 0.085,-0.011 0.084,0.005 m 0,0 0.91,0.043 0.899,-0.166 0.835,-0.366 0.733,-0.548 0.588,-0.696 0.416,-0.813 0.222,-0.888 0.014,-0.91 m 0,0 -0.003,-0.079 0.006,-0.073 0.011,-0.076 0.022,-0.073 0.031,-0.07 0.037,-0.064 0.042,-0.063 0.051,-0.055 m 0,0 0.671,-0.672 m 0,0 0.497,-0.742 0.175,-0.877 -0.175,-0.874 -0.497,-0.741 -0.742,-0.498 -0.874,-0.174 -0.876,0.174 -0.742,0.498 m 0,0 -0.672,0.668 m 0,0 -0.056,0.051 -0.062,0.045 -0.067,0.036 -0.068,0.031 -0.073,0.02 -0.076,0.014 -0.076,0.006 -0.076,-0.003 m 0,0 -0.913,0.014 -0.885,0.219 -0.812,0.416 -0.697,0.59 -0.548,0.734 -0.365,0.834 -0.166,0.899 0.04,0.911 m 0,0 0.005,0.084 -0.009,0.084 -0.025,0.079 -0.039,0.076 -0.05,0.064 -0.065,0.057 -0.071,0.042 -0.078,0.028 m 0,0 -2.33,0.624 m 0,0 -0.093,0.017 -0.092,-0.006 -0.09,-0.023 -0.085,-0.042 -0.075,-0.056 -0.059,-0.073 -0.045,-0.082 -0.028,-0.086 m 0,0 -0.138,-1.588 0.211,-1.579 0.545,-1.498 0.86,-1.344 1.126,-1.124 1.344,-0.856 1.497,-0.543 1.58,-0.208 m 0,0 0.087,-0.005 0.087,-0.014 0.084,-0.023 0.082,-0.031 0.078,-0.039 0.074,-0.045 0.07,-0.051 0.064,-0.059 m 0,0 0.459,-0.46 m 0,0 0.162,-0.217 0.09,-0.253 0.011,-0.267 -0.064,-0.261 -0.138,-0.231 -0.199,-0.179 -0.242,-0.116 -0.267,-0.039 m 0,0 H 14.589 m 0,0 -0.267,0.039 -0.241,0.116 -0.199,0.179 -0.138,0.231 -0.065,0.261 0.011,0.267 0.093,0.253 0.158,0.217 m 0,0 0.46,0.46 m 0,0 0.065,0.059 0.07,0.051 0.076,0.045 0.076,0.039 0.084,0.031 0.085,0.023 0.084,0.014 0.087,0.005 m 0,0 1.579,0.208 1.498,0.543 1.346,0.856 1.127,1.124 0.854,1.344 0.548,1.498 0.208,1.579 -0.135,1.588 m 0,0 -0.028,0.086 -0.045,0.082 -0.062,0.073 -0.073,0.056 -0.084,0.042 -0.09,0.023 -0.093,0.006 -0.093,-0.017 m 0,0 -2.326,-0.624 m 0,0 -0.082,-0.028 -0.07,-0.042 -0.065,-0.057 -0.05,-0.064 -0.04,-0.076 -0.025,-0.079 -0.009,-0.084 0.006,-0.084 m 0,0 0.04,-0.911 -0.166,-0.899 -0.365,-0.834 -0.546,-0.734 -0.699,-0.59 -0.813,-0.416 -0.884,-0.219 -0.914,-0.014 m 0,0 -0.076,0.003 -0.075,-0.006 -0.074,-0.014 -0.073,-0.02 -0.07,-0.031 -0.067,-0.036 -0.062,-0.045 -0.056,-0.051 m 0,0 -0.672,-0.668 m 0,0 -0.742,-0.498 -0.874,-0.174 -0.877,0.174 -0.741,0.498 -0.498,0.741 -0.171,0.874 0.171,0.877 0.498,0.742 m 0,0 0.671,0.672 m 0,0 0.051,0.055 0.045,0.063 0.036,0.064 0.028,0.07 0.023,0.073 0.014,0.076 0.003,0.073 -0.003,0.079 m 0,0 0.014,0.91 0.222,0.888 0.416,0.813 0.59,0.696 0.731,0.548 0.837,0.366 0.896,0.166 0.913,-0.043 m 0,0 0.082,-0.005 0.084,0.011 0.079,0.025 0.076,0.04 0.068,0.05 0.053,0.062 0.042,0.073 0.031,0.079 m 0,0 0.624,2.329 m 0,0 0.014,0.09 -0.003,0.095 -0.025,0.091 -0.04,0.084 -0.059,0.073 -0.07,0.062 -0.081,0.045 -0.09,0.028 m 0,0 -1.588,0.135 -1.579,-0.208 -1.495,-0.548 -1.343,-0.857 -1.127,-1.127 -0.854,-1.343 -0.545,-1.498 -0.208,-1.579 m 0,0 -0.006,-0.087 -0.014,-0.087 -0.023,-0.085 -0.031,-0.081 -0.036,-0.079 -0.045,-0.073 -0.053,-0.07 -0.059,-0.065 m 0,0 -0.459,-0.461 m 0,0 -0.216,-0.16 -0.253,-0.09 -0.27,-0.014 -0.258,0.068 -0.23,0.137 -0.18,0.2 -0.115,0.241 -0.04,0.265 m 0,0 V 95.094 m 0,0 0.011,0.131 0.04,0.13 0.064,0.118 0.085,0.104 0.103,0.087 0.118,0.062 0.13,0.039 0.135,0.014 m 0,0 h 0.916 m 0,0 0.89,0.087 0.861,0.262 0.789,0.421 0.694,0.57 0.568,0.692 0.424,0.792 0.261,0.857 0.088,0.894 m 0,0 v 2.287 m 0,0 0.008,0.09 0.025,0.087 0.043,0.079 0.055,0.067 0.071,0.059 0.079,0.042 0.087,0.026 0.089,0.008 m 0,0 h 1.372 m 0,0 0.09,0.009 0.084,0.025 0.079,0.042 0.07,0.059 0.056,0.067 0.042,0.082 0.028,0.084 0.009,0.09 m 0,0 v 0.666 m 0,0 -0.006,0.073 -0.016,0.07 -0.029,0.065 -0.036,0.062 -0.048,0.054 -0.053,0.047 -0.062,0.037 -0.065,0.028 m 0,0 -1.658,0.542 m 0,0 -0.065,0.028 -0.061,0.037 -0.057,0.047 -0.044,0.054 -0.04,0.062 -0.025,0.065 -0.017,0.07 -0.005,0.073 m 0,0 v 1.562 m 0,0 0.002,0.059 0.011,0.059 0.02,0.056 0.026,0.054 0.033,0.05 0.039,0.045 0.048,0.039 0.048,0.034 m 0,0 0.686,0.397 m 0,0 0.05,0.033 0.045,0.039 0.04,0.046 0.034,0.05 0.028,0.053 0.016,0.057 0.011,0.059 0.006,0.059 m 0,0 v 0.632 m 0,0 -0.006,0.059 -0.011,0.059 -0.016,0.056 -0.028,0.053 -0.034,0.051 -0.04,0.045 -0.045,0.04 -0.05,0.033 m 0,0 -0.571,0.329 m 0,0 -0.047,0.039 -0.037,0.045 -0.022,0.056 -0.009,0.06 0.009,0.058 0.022,0.057 0.037,0.045 0.047,0.036 m 0,0 0.571,0.332 m 0,0 0.05,0.033 0.045,0.04 0.04,0.045 0.034,0.05 0.028,0.054 0.016,0.056 0.011,0.059 0.006,0.059 m 0,0 v 0.897 m 0,0 -0.006,0.059 -0.011,0.059 -0.016,0.055 -0.028,0.054 -0.034,0.051 -0.04,0.044 -0.045,0.04 -0.05,0.034 m 0,0 -0.571,0.331 m 0,0 -0.047,0.034 -0.037,0.048 -0.022,0.056 -0.009,0.059 0.009,0.059 0.022,0.056 0.037,0.048 0.047,0.033 m 0,0 0.571,0.332 m 0,0 0.05,0.034 0.045,0.039 0.04,0.045 0.034,0.048 0.028,0.056 0.016,0.056 0.011,0.059 0.006,0.059 m 0,0 v 0.897 m 0,0 -0.006,0.059 -0.011,0.059 -0.016,0.056 -0.028,0.053 -0.034,0.051 -0.04,0.045 -0.045,0.039 -0.05,0.034 m 0,0 -0.571,0.328 m 0,0 -0.047,0.037 -0.037,0.048 -0.022,0.056 -0.009,0.059 0.009,0.059 0.022,0.054 0.037,0.047 0.047,0.037 m 0,0 0.571,0.331 m 0,0 0.05,0.034 0.045,0.04 0.04,0.044 0.034,0.051 0.028,0.054 0.016,0.055 0.011,0.06 0.006,0.059 m 0,0 v 0.694 m 0,0 -0.008,0.09 -0.025,0.087 -0.043,0.079 -0.059,0.07 -0.067,0.056 -0.082,0.042 -0.084,0.025 -0.09,0.009 m 0,0 h -0.483 m 0,0 -0.149,-0.009 -0.146,-0.031 -0.144,-0.047 -0.135,-0.065 -0.123,-0.084 -0.113,-0.099 -0.098,-0.112 -0.084,-0.123 m 0,0 -3.254,-5.637 m 0,0 -0.034,-0.071 -0.019,-0.078 -0.006,-0.082 0.006,-0.078 0.022,-0.076 0.034,-0.073 0.045,-0.065 0.056,-0.056 m 0,0 0.79,-0.846 0.55,-1.018 0.281,-1.12 -0.011,-1.158 -0.301,-1.116 -0.57,-1.003 -0.804,-0.832 -0.986,-0.601 m 0,0 -0.059,-0.031 -0.053,-0.039 -0.048,-0.048 -0.039,-0.051 -0.031,-0.059 -0.023,-0.061 -0.014,-0.065 -0.006,-0.065 m 0,0 v -2.259 m 0,0 L 6.154,100.132 6.089,99.916 5.985,99.719 5.842,99.544 5.668,99.404 5.471,99.297 5.255,99.233 5.033,99.211 m 0,0 H 3.431 m 0,0 L 2.762,99.146 2.119,98.949 1.526,98.631 1.006,98.205 0.579,97.685 0.261,97.092 0.068,96.448 0,95.779 m 0,0 V 65.706 m 0,0 v -0.034 l 0.006,-0.033 0.005,-0.031 0.009,-0.033 0.011,-0.032 0.014,-0.031 0.014,-0.03 0.017,-0.029 m 0,0 0.298,-0.444 m 0,0 0.017,-0.027 0.011,-0.034 0.008,-0.031 V 64.883 64.849 L 0.402,64.816 0.391,64.785 0.374,64.754 m 0,0 -0.298,-0.441 m 0,0 L 0.059,64.282 0.045,64.254 0.031,64.223 0.02,64.189 0.011,64.158 0.006,64.124 0,64.091 v -0.034 m 0,0 V 33.678 m 0,0 V 33.644 L 0.006,33.61 0.011,33.58 0.02,33.546 0.031,33.515 0.045,33.484 0.059,33.453 0.076,33.425 m 0,0 0.298,-0.444 m 0,0 L 0.391,32.95 0.402,32.919 0.41,32.888 V 32.855 32.821 L 0.402,32.787 0.391,32.756 0.374,32.728 m 0,0 -0.298,-0.444 m 0,0 L 0.059,32.253 0.045,32.222 0.031,32.194 0.02,32.16 0.011,32.13 0.006,32.096 0,32.062 v -0.033 m 0,0 V 1.649 m 0,0 V 1.616 L 0.006,1.582 0.011,1.548 0.02,1.517 0.031,1.484 0.045,1.455 0.059,1.424 0.076,1.396 m 0,0 0.298,-0.443 m 0,0 L 0.391,0.922 0.402,0.891 0.41,0.857 V 0.826 0.79 L 0.402,0.759 0.391,0.728 0.374,0.697 m 0,0 -0.298,-0.444 m 0,0 L 0.059,0.225 0.045,0.197 0.031,0.163 0.02,0.132 0.011,0.101 0.006,0.068 0,0.034 V 0"
         style="fill:none;stroke:#000000;stroke-width:0.101;stroke-linecap:round;stroke-linejoin:round;stroke-miterlimit:10;stroke-dasharray:none;stroke-opacity:1"
         id="path899"
         inkscape:connector-curvature="0" />
    </g>
  </g>
</svg>
